<?xml version="1.0" standalone="no"?>
<!DOCTYPE svg PUBLIC "-//W3C//DTD SVG 20010904//EN"
 "http://www.w3.org/TR/2001/REC-SVG-20010904/DTD/svg10.dtd">
<svg version="1.0" xmlns="http://www.w3.org/2000/svg"
 width="450.000000pt" height="450.000000pt" viewBox="0 0 450.000000 450.000000"
 preserveAspectRatio="xMidYMid meet">

<g transform="translate(0.000000,450.000000) scale(0.100000,-0.100000)"
fill="#000000" stroke="none">
<path d="M2605 2950 c-193 -35 -378 -160 -480 -325 l-46 -73 65 -130 c35 -72
67 -128 70 -125 3 4 6 18 6 32 1 40 44 153 77 202 47 67 120 135 183 168 197
105 443 72 598 -80 l50 -49 111 0 c61 0 111 4 111 8 0 24 -85 135 -150 195
-80 74 -192 135 -295 163 -73 19 -232 26 -300 14z"/>
<path d="M1771 2831 c-59 -116 -418 -852 -547 -1118 l-83 -173 525 0 524 0
-45 90 -45 90 -315 0 c-173 0 -315 2 -315 4 0 2 40 85 88 183 49 98 131 265
182 371 l94 194 152 -309 c167 -340 210 -404 326 -486 137 -97 244 -131 408
-131 190 -1 345 57 474 175 60 55 166 189 166 210 0 4 -50 8 -111 8 l-111 2
-53 -54 c-94 -94 -222 -147 -355 -147 -213 0 -379 108 -475 308 -84 174 -278
573 -356 732 l-76 155 -52 -104z"/>
</g>
</svg>
